<?xml version="1.0" encoding="UTF-8"?>
<!DOCTYPE svg PUBLIC "-//W3C//DTD SVG 1.1//EN" "http://www.w3.org/Graphics/SVG/1.1/DTD/svg11.dtd">
<svg xmlns="http://www.w3.org/2000/svg" version="1.1" width="215px" height="215px" style="shape-rendering:geometricPrecision; text-rendering:geometricPrecision; image-rendering:optimizeQuality; fill-rule:evenodd; clip-rule:evenodd" xmlns:xlink="http://www.w3.org/1999/xlink">
<g><path style="opacity:1" fill="#fcfcfc" d="M -0.5,-0.5 C 71.1667,-0.5 142.833,-0.5 214.5,-0.5C 214.5,71.1667 214.5,142.833 214.5,214.5C 142.833,214.5 71.1667,214.5 -0.5,214.5C -0.5,142.833 -0.5,71.1667 -0.5,-0.5 Z"/></g>
<g><path style="opacity:1" fill="#231f20" d="M 64.5,4.5 C 99.3054,3.1581 131.972,10.6581 162.5,27C 187.523,43.5047 202.69,66.6714 208,96.5C 212.851,126.752 207.184,154.752 191,180.5C 178.763,195.707 162.93,204.874 143.5,208C 116.807,208.915 90.1407,208.582 63.5,207C 21.9929,195.026 2.65952,167.359 5.5,124C 5.47623,99.7353 8.6429,75.902 15,52.5C 18.6106,38.4376 25.444,26.2709 35.5,16C 44.423,10.0856 54.0897,6.25222 64.5,4.5 Z"/></g>
<g><path style="opacity:1" fill="#28451b" d="M 98.5,34.5 C 94.1524,34.0907 89.819,33.9241 85.5,34C 84.5495,37.0567 84.2161,40.2234 84.5,43.5C 83.5184,40.0381 83.185,36.3714 83.5,32.5C 88.9443,31.8917 93.9443,32.5583 98.5,34.5 Z"/></g>
<g><path style="opacity:1" fill="#6ff150" d="M 98.5,34.5 C 104.809,34.9895 110.809,36.3228 116.5,38.5C 111.145,38.1263 105.812,37.4596 100.5,36.5C 98.1667,36.8333 95.8333,37.1667 93.5,37.5C 97.4592,38.3265 101.459,38.8265 105.5,39C 105.167,39.3333 104.833,39.6667 104.5,40C 98.8638,41.1655 93.1971,41.6655 87.5,41.5C 87.762,40.0222 87.4287,38.6888 86.5,37.5C 85.5481,39.0453 85.2148,40.712 85.5,42.5C 89.0419,42.1872 92.3752,42.5206 95.5,43.5C 91.8333,43.5 88.1667,43.5 84.5,43.5C 84.2161,40.2234 84.5495,37.0567 85.5,34C 89.819,33.9241 94.1524,34.0907 98.5,34.5 Z"/></g>
<g><path style="opacity:1" fill="#62fd3f" d="M 116.5,38.5 C 113.495,40.3966 110.161,41.7299 106.5,42.5C 109.447,43.3214 112.447,43.8214 115.5,44C 115.167,44.3333 114.833,44.6667 114.5,45C 108.22,44.3539 101.887,43.8539 95.5,43.5C 92.3752,42.5206 89.0419,42.1872 85.5,42.5C 85.2148,40.712 85.5481,39.0453 86.5,37.5C 87.4287,38.6888 87.762,40.0222 87.5,41.5C 93.1971,41.6655 98.8638,41.1655 104.5,40C 104.833,39.6667 105.167,39.3333 105.5,39C 101.459,38.8265 97.4592,38.3265 93.5,37.5C 95.8333,37.1667 98.1667,36.8333 100.5,36.5C 105.812,37.4596 111.145,38.1263 116.5,38.5 Z"/></g>
<g><path style="opacity:1" fill="#2a1928" d="M 168.5,69.5 C 167.026,68.5637 166.026,67.2303 165.5,65.5C 166.785,65.4039 168.119,65.4039 169.5,65.5C 169.324,63.3284 169.157,60.9951 169,58.5C 166.937,56.2659 164.771,54.2659 162.5,52.5C 161.766,51.2921 161.433,49.9587 161.5,48.5C 170.974,51.4831 175.64,57.9831 175.5,68C 175.167,68.5 174.833,69 174.5,69.5C 173.784,68.689 172.95,68.0223 172,67.5C 170.923,68.4295 169.756,69.0962 168.5,69.5 Z"/></g>
<g><path style="opacity:1" fill="#2c172f" d="M 163.5,63.5 C 163.167,61.1667 161.833,59.8333 159.5,59.5C 159.5,58.5 159.5,57.5 159.5,56.5C 163.5,57.1667 165.833,59.5 166.5,63.5C 165.5,63.5 164.5,63.5 163.5,63.5 Z"/></g>
<g><path style="opacity:1" fill="#1b2714" d="M 162.5,52.5 C 164.771,54.2659 166.937,56.2659 169,58.5C 169.157,60.9951 169.324,63.3284 169.5,65.5C 168.119,65.4039 166.785,65.4039 165.5,65.5C 164.5,65.1667 163.833,64.5 163.5,63.5C 164.5,63.5 165.5,63.5 166.5,63.5C 165.833,59.5 163.5,57.1667 159.5,56.5C 159.5,57.5 159.5,58.5 159.5,59.5C 158.167,58.8333 157.167,57.8333 156.5,56.5C 158.912,56.3059 159.912,54.9726 159.5,52.5C 160.5,52.5 161.5,52.5 162.5,52.5 Z"/></g>
<g><path style="opacity:1" fill="#21491d" d="M 159.5,59.5 C 161.833,59.8333 163.167,61.1667 163.5,63.5C 161.833,62.5 160.5,61.1667 159.5,59.5 Z"/></g>
<g><path style="opacity:1" fill="#24491b" d="M 89.5,83.5 C 80.8299,82.2107 72.1632,82.2107 63.5,83.5C 72.1667,79.5 80.8333,79.5 89.5,83.5 Z"/></g>
<g><path style="opacity:1" fill="#6af748" d="M 116.5,38.5 C 131.335,41.2527 144.669,47.2527 156.5,56.5C 157.167,57.8333 158.167,58.8333 159.5,59.5C 160.5,61.1667 161.833,62.5 163.5,63.5C 163.833,64.5 164.5,65.1667 165.5,65.5C 166.026,67.2303 167.026,68.5637 168.5,69.5C 170.656,73.8113 172.822,78.1447 175,82.5C 177.603,88.5775 179.103,94.9109 179.5,101.5C 181.005,112.891 180.672,124.225 178.5,135.5C 173.638,157.693 160.305,171.693 138.5,177.5C 133.537,178.254 128.537,178.587 123.5,178.5C 115.621,177.62 109.955,173.62 106.5,166.5C 105.86,163.135 105.026,159.802 104,156.5C 104.053,140.663 103.887,124.996 103.5,109.5C 103.139,105.778 101.472,102.778 98.5,100.5C 95.6116,97.2197 91.9449,95.2197 87.5,94.5C 86.3285,93.6554 84.9952,92.9887 83.5,92.5C 79.0189,91.3516 74.3522,91.1849 69.5,92C 67.2774,92.5662 65.2774,93.3995 63.5,94.5C 54.9877,98.684 49.321,105.351 46.5,114.5C 45.8333,116.167 45.1667,117.833 44.5,119.5C 43.8826,119.611 43.3826,119.944 43,120.5C 42.4572,126.897 42.9572,133.231 44.5,139.5C 44.1667,141.5 43.8333,143.5 43.5,145.5C 42.1585,143.995 40.4918,143.328 38.5,143.5C 38.7151,141.226 39.3818,139.059 40.5,137C 38.938,133.313 39.2713,129.813 41.5,126.5C 40.16,125.312 39.4934,123.812 39.5,122C 40.4181,119.914 41.0847,117.747 41.5,115.5C 40.5,115.5 39.5,115.5 38.5,115.5C 38.5,113.167 38.5,110.833 38.5,108.5C 43.5,96.8333 51.8333,88.5 63.5,83.5C 72.1632,82.2107 80.8299,82.2107 89.5,83.5C 98.1847,87.1108 105.351,92.7775 111,100.5C 111.36,102.608 112.027,104.608 113,106.5C 113.333,124.167 113.667,141.833 114,159.5C 117.289,168.062 123.455,171.229 132.5,169C 149.558,166.222 161.058,156.722 167,140.5C 169.394,133.699 170.56,126.699 170.5,119.5C 172.088,111.332 171.422,103.332 168.5,95.5C 163.493,73.985 150.493,59.485 129.5,52C 118.3,48.1984 106.967,45.3651 95.5,43.5C 101.887,43.8539 108.22,44.3539 114.5,45C 114.833,44.6667 115.167,44.3333 115.5,44C 112.447,43.8214 109.447,43.3214 106.5,42.5C 110.161,41.7299 113.495,40.3966 116.5,38.5 Z"/></g>
<g><path style="opacity:1" fill="#3f6032" d="M 83.5,92.5 C 76.6333,92.2053 69.9666,92.872 63.5,94.5C 65.2774,93.3995 67.2774,92.5662 69.5,92C 74.3522,91.1849 79.0189,91.3516 83.5,92.5 Z"/></g>
<g><path style="opacity:1" fill="#291a28" d="M 87.5,94.5 C 91.9449,95.2197 95.6116,97.2197 98.5,100.5C 98.6712,109.429 98.3379,118.429 97.5,127.5C 96.4538,119.056 95.7872,110.723 95.5,102.5C 90.9017,101.407 87.235,98.9074 84.5,95C 85.448,94.5172 86.448,94.3505 87.5,94.5 Z"/></g>
<g><path style="opacity:1" fill="#35532b" d="M 168.5,95.5 C 171.422,103.332 172.088,111.332 170.5,119.5C 170.684,111.401 170.017,103.401 168.5,95.5 Z"/></g>
<g><path style="opacity:1" fill="#1f4e14" d="M 179.5,101.5 C 180.268,102.263 180.768,103.263 181,104.5C 181.667,112.167 181.667,119.833 181,127.5C 180.721,130.457 179.887,133.123 178.5,135.5C 180.672,124.225 181.005,112.891 179.5,101.5 Z"/></g>
<g><path style="opacity:1" fill="#163110" d="M 46.5,114.5 C 47.1209,122.108 47.1209,129.775 46.5,137.5C 44.9431,131.739 44.2764,125.739 44.5,119.5C 45.1667,117.833 45.8333,116.167 46.5,114.5 Z"/></g>
<g><path style="opacity:1" fill="#19340f" d="M 34.5,129.5 C 35.4824,133.316 36.1491,137.316 36.5,141.5C 35.7784,141.082 35.2784,140.416 35,139.5C 34.5017,136.183 34.335,132.85 34.5,129.5 Z"/></g>
<g><path style="opacity:1" fill="#6bf34b" d="M 38.5,108.5 C 38.5,110.833 38.5,113.167 38.5,115.5C 39.5,115.5 40.5,115.5 41.5,115.5C 41.0847,117.747 40.4181,119.914 39.5,122C 39.4934,123.812 40.16,125.312 41.5,126.5C 39.2713,129.813 38.938,133.313 40.5,137C 39.3818,139.059 38.7151,141.226 38.5,143.5C 40.4918,143.328 42.1585,143.995 43.5,145.5C 43.8333,143.5 44.1667,141.5 44.5,139.5C 42.9572,133.231 42.4572,126.897 43,120.5C 43.3826,119.944 43.8826,119.611 44.5,119.5C 44.2764,125.739 44.9431,131.739 46.5,137.5C 51.6745,158.112 65.0079,168.112 86.5,167.5C 86.5,170.833 86.5,174.167 86.5,177.5C 61.0972,177.407 44.4305,165.407 36.5,141.5C 36.1491,137.316 35.4824,133.316 34.5,129.5C 34.5474,122.127 35.8808,115.127 38.5,108.5 Z"/></g>
<g><path style="opacity:1" fill="#1e3317" d="M 103.5,109.5 C 103.887,124.996 104.053,140.663 104,156.5C 105.026,159.802 105.86,163.135 106.5,166.5C 105.839,167.718 105.172,169.051 104.5,170.5C 104.047,167.482 103.713,164.482 103.5,161.5C 102.167,165.5 100.833,165.5 99.5,161.5C 98.914,161.709 98.414,162.043 98,162.5C 97.8441,153.831 98.1775,145.164 99,136.5C 99.9806,144.142 100.814,151.809 101.5,159.5C 102.541,142.847 103.208,126.18 103.5,109.5 Z"/></g>
<g><path style="opacity:1" fill="#1e4c19" d="M 138.5,177.5 C 135.814,178.991 132.814,179.657 129.5,179.5C 127.304,179.495 125.304,179.162 123.5,178.5C 128.537,178.587 133.537,178.254 138.5,177.5 Z"/></g>
</svg>
